<?xml version="1.0" standalone="no"?>
<!DOCTYPE svg PUBLIC "-//W3C//DTD SVG 20010904//EN"
 "http://www.w3.org/TR/2001/REC-SVG-20010904/DTD/svg10.dtd">
<svg version="1.0" xmlns="http://www.w3.org/2000/svg"
 width="400.000000pt" height="100%" viewBox="0 0 300.000000 205.000000"
 preserveAspectRatio="xMidYMid meet">
<metadata>
Created by potrace 1.10, written by Peter Selinger 2001-2011
</metadata>
<g transform="translate(0.000000,205.000000) scale(0.100000,-0.100000)"
fill="#5b8ed6" stroke="none">
<path d="M1420 1743 c-98 -17 -228 -46 -256 -58 -19 -8 -88 -68 -155 -134 -67
-67 -123 -121 -125 -121 -2 0 12 29 32 65 45 82 43 106 -6 73 -64 -43 -122
-195 -145 -383 -26 -204 -14 -338 39 -442 72 -142 227 -298 361 -363 145 -69
172 -75 345 -74 149 1 158 2 235 32 120 47 307 180 367 260 82 111 106 180
118 351 15 218 -37 421 -145 561 -63 81 -170 176 -234 207 -64 30 -131 42
-131 23 0 -8 -7 -10 -17 -5 -21 8 -246 14 -283 8z m317 -30 c-4 -3 -10 -3 -14
0 -3 4 0 7 7 7 7 0 10 -3 7 -7z m-273 -158 c4 -12 26 -15 106 -15 l100 0 0
-114 c0 -95 -3 -115 -16 -120 -32 -12 -301 -7 -312 7 -5 6 -13 47 -17 90 -6
67 -5 77 9 77 12 0 16 10 16 45 l0 45 54 0 c39 0 55 -4 60 -15z m-84 -365 c35
-37 53 -111 48 -194 -3 -56 -5 -60 -31 -67 -24 -6 -29 -4 -38 17 -5 14 -9 45
-9 70 0 92 -60 144 -112 97 -14 -13 -18 -31 -18 -88 0 -65 2 -74 29 -99 15
-15 42 -35 58 -44 17 -9 50 -34 73 -54 42 -37 43 -38 53 -128 8 -77 7 -96 -7
-134 -15 -39 -23 -47 -71 -66 -52 -21 -55 -21 -110 -5 -32 9 -67 27 -80 39
-31 31 -40 114 -26 229 1 4 14 7 31 7 37 0 47 -19 49 -94 2 -71 16 -85 82 -86
52 0 59 9 59 86 0 53 -44 105 -120 142 -88 43 -119 113 -105 240 10 92 13 101
57 132 35 25 50 30 100 30 54 0 63 -3 88 -30z m354 -9 c46 -26 74 -93 82 -197
4 -59 3 -103 -5 -125 -10 -30 -8 -41 11 -79 12 -26 24 -71 26 -107 4 -56 1
-65 -27 -107 -18 -25 -41 -50 -51 -56 -12 -6 -75 -9 -157 -8 l-138 3 -3 37
c-2 29 0 38 12 38 14 0 16 24 16 183 0 100 3 218 6 263 6 75 5 81 -13 86 -25
7 -35 42 -18 65 10 14 32 19 97 24 96 6 122 3 162 -20z"/>
<path d="M1360 1520 c0 -39 1 -40 34 -40 19 0 38 5 41 10 9 15 212 13 218 -2
3 -7 6 -1 6 15 l1 27 -100 0 c-80 0 -102 3 -106 15 -4 10 -20 15 -50 15 l-44
0 0 -40z"/>
<path d="M1440 1475 c-8 -10 -30 -15 -61 -15 l-49 0 6 -57 c3 -32 7 -64 10
-70 2 -10 43 -13 157 -13 l153 0 -7 68 c-5 37 -8 75 -8 85 -1 15 -12 17 -95
17 -71 0 -97 -4 -106 -15z m62 -48 c-22 -23 -22 -24 -4 -40 26 -23 27 -22 42
26 7 23 15 37 17 31 6 -17 -26 -84 -41 -84 -7 0 -21 9 -31 20 -18 20 -18 21 5
45 13 14 26 25 28 25 3 0 -4 -10 -16 -23z m96 0 l22 -23 -27 -25 c-25 -21 -26
-22 -9 -1 18 20 18 23 3 40 -16 17 -22 32 -14 32 2 0 13 -10 25 -23z"/>
<path d="M1580 1077 c0 -19 3 -74 6 -123 l7 -89 61 0 c53 0 62 3 72 23 14 29
6 157 -13 195 -12 25 -18 27 -73 27 l-60 0 0 -33z"/>
<path d="M1590 680 l0 -90 29 0 c15 0 49 3 75 6 60 9 82 43 66 103 -14 51 -23
57 -102 65 l-68 7 0 -91z"/>
</g>
</svg>
